<svg width="325" height="50" viewBox="0 0 325 50" fill="none" xmlns="http://www.w3.org/2000/svg">
<path d="M35.4237 0H318L287.5 50H0.5L35.4237 0Z" fill="white"/>
<path d="M277.908 0H319L296.807 50H256L277.908 0Z" fill="#273C66"/>
<path d="M37.78 18.94V23.02H42.58V24.88H37.78V29.14H43.18V31H35.5V17.08H43.18V18.94H37.78ZM45.2283 25.48C45.2283 24.3467 45.4549 23.3533 45.9083 22.5C46.3749 21.6333 47.0149 20.9667 47.8283 20.5C48.6416 20.0333 49.5749 19.8 50.6283 19.8C51.9616 19.8 53.0616 20.12 53.9283 20.76C54.8083 21.3867 55.4016 22.2867 55.7083 23.46H53.2483C53.0483 22.9133 52.7283 22.4867 52.2883 22.18C51.8483 21.8733 51.2949 21.72 50.6283 21.72C49.6949 21.72 48.9483 22.0533 48.3883 22.72C47.8416 23.3733 47.5683 24.2933 47.5683 25.48C47.5683 26.6667 47.8416 27.5933 48.3883 28.26C48.9483 28.9267 49.6949 29.26 50.6283 29.26C51.9483 29.26 52.8216 28.68 53.2483 27.52H55.7083C55.3883 28.64 54.7883 29.5333 53.9083 30.2C53.0283 30.8533 51.9349 31.18 50.6283 31.18C49.5749 31.18 48.6416 30.9467 47.8283 30.48C47.0149 30 46.3749 29.3333 45.9083 28.48C45.4549 27.6133 45.2283 26.6133 45.2283 25.48ZM62.7605 31.18C61.7205 31.18 60.7805 30.9467 59.9405 30.48C59.1005 30 58.4405 29.3333 57.9605 28.48C57.4805 27.6133 57.2405 26.6133 57.2405 25.48C57.2405 24.36 57.4871 23.3667 57.9805 22.5C58.4738 21.6333 59.1471 20.9667 60.0005 20.5C60.8538 20.0333 61.8071 19.8 62.8605 19.8C63.9138 19.8 64.8671 20.0333 65.7205 20.5C66.5738 20.9667 67.2471 21.6333 67.7405 22.5C68.2338 23.3667 68.4805 24.36 68.4805 25.48C68.4805 26.6 68.2271 27.5933 67.7205 28.46C67.2138 29.3267 66.5205 30 65.6405 30.48C64.7738 30.9467 63.8138 31.18 62.7605 31.18ZM62.7605 29.2C63.3471 29.2 63.8938 29.06 64.4005 28.78C64.9205 28.5 65.3405 28.08 65.6605 27.52C65.9805 26.96 66.1405 26.28 66.1405 25.48C66.1405 24.68 65.9871 24.0067 65.6805 23.46C65.3738 22.9 64.9671 22.48 64.4605 22.2C63.9538 21.92 63.4071 21.78 62.8205 21.78C62.2338 21.78 61.6871 21.92 61.1805 22.2C60.6871 22.48 60.2938 22.9 60.0005 23.46C59.7071 24.0067 59.5605 24.68 59.5605 25.48C59.5605 26.6667 59.8605 27.5867 60.4605 28.24C61.0738 28.88 61.8405 29.2 62.7605 29.2ZM85.9897 21.1C85.6297 20.4067 85.1297 19.8867 84.4897 19.54C83.8497 19.18 83.1097 19 82.2697 19C81.3497 19 80.5297 19.2067 79.8097 19.62C79.0897 20.0333 78.523 20.62 78.1097 21.38C77.7097 22.14 77.5097 23.02 77.5097 24.02C77.5097 25.02 77.7097 25.9067 78.1097 26.68C78.523 27.44 79.0897 28.0267 79.8097 28.44C80.5297 28.8533 81.3497 29.06 82.2697 29.06C83.5097 29.06 84.5164 28.7133 85.2897 28.02C86.063 27.3267 86.5364 26.3867 86.7097 25.2H81.4897V23.38H89.1497V25.16C89.003 26.24 88.6164 27.2333 87.9897 28.14C87.3764 29.0467 86.5697 29.7733 85.5697 30.32C84.583 30.8533 83.483 31.12 82.2697 31.12C80.963 31.12 79.7697 30.82 78.6897 30.22C77.6097 29.6067 76.7497 28.76 76.1097 27.68C75.483 26.6 75.1697 25.38 75.1697 24.02C75.1697 22.66 75.483 21.44 76.1097 20.36C76.7497 19.28 77.6097 18.44 78.6897 17.84C79.783 17.2267 80.9764 16.92 82.2697 16.92C83.7497 16.92 85.063 17.2867 86.2097 18.02C87.3697 18.74 88.2097 19.7667 88.7297 21.1H85.9897ZM93.6784 16.2V31H91.3984V16.2H93.6784ZM97.8319 18.52C97.4185 18.52 97.0719 18.38 96.7919 18.1C96.5119 17.82 96.3719 17.4733 96.3719 17.06C96.3719 16.6467 96.5119 16.3 96.7919 16.02C97.0719 15.74 97.4185 15.6 97.8319 15.6C98.2319 15.6 98.5719 15.74 98.8519 16.02C99.1319 16.3 99.2719 16.6467 99.2719 17.06C99.2719 17.4733 99.1319 17.82 98.8519 18.1C98.5719 18.38 98.2319 18.52 97.8319 18.52ZM98.9519 19.98V31H96.6719V19.98H98.9519ZM101.185 25.44C101.185 24.3333 101.412 23.3533 101.865 22.5C102.332 21.6467 102.959 20.9867 103.745 20.52C104.545 20.04 105.432 19.8 106.405 19.8C107.125 19.8 107.832 19.96 108.525 20.28C109.232 20.5867 109.792 21 110.205 21.52V16.2H112.505V31H110.205V29.34C109.832 29.8733 109.312 30.3133 108.645 30.66C107.992 31.0067 107.239 31.18 106.385 31.18C105.425 31.18 104.545 30.94 103.745 30.46C102.959 29.9667 102.332 29.2867 101.865 28.42C101.412 27.54 101.185 26.5467 101.185 25.44ZM110.205 25.48C110.205 24.72 110.045 24.06 109.725 23.5C109.419 22.94 109.012 22.5133 108.505 22.22C107.999 21.9267 107.452 21.78 106.865 21.78C106.279 21.78 105.732 21.9267 105.225 22.22C104.719 22.5 104.305 22.92 103.985 23.48C103.679 24.0267 103.525 24.68 103.525 25.44C103.525 26.2 103.679 26.8667 103.985 27.44C104.305 28.0133 104.719 28.4533 105.225 28.76C105.745 29.0533 106.292 29.2 106.865 29.2C107.452 29.2 107.999 29.0533 108.505 28.76C109.012 28.4667 109.419 28.04 109.725 27.48C110.045 26.9067 110.205 26.24 110.205 25.48ZM125.6 25.22C125.6 25.6333 125.573 26.0067 125.52 26.34H117.1C117.167 27.22 117.493 27.9267 118.08 28.46C118.667 28.9933 119.387 29.26 120.24 29.26C121.467 29.26 122.333 28.7467 122.84 27.72H125.3C124.967 28.7333 124.36 29.5667 123.48 30.22C122.613 30.86 121.533 31.18 120.24 31.18C119.187 31.18 118.24 30.9467 117.4 30.48C116.573 30 115.92 29.3333 115.44 28.48C114.973 27.6133 114.74 26.6133 114.74 25.48C114.74 24.3467 114.967 23.3533 115.42 22.5C115.887 21.6333 116.533 20.9667 117.36 20.5C118.2 20.0333 119.16 19.8 120.24 19.8C121.28 19.8 122.207 20.0267 123.02 20.48C123.833 20.9333 124.467 21.5733 124.92 22.4C125.373 23.2133 125.6 24.1533 125.6 25.22ZM123.22 24.5C123.207 23.66 122.907 22.9867 122.32 22.48C121.733 21.9733 121.007 21.72 120.14 21.72C119.353 21.72 118.68 21.9733 118.12 22.48C117.56 22.9733 117.227 23.6467 117.12 24.5H123.22ZM130.344 28.26L127.924 33.78H126.444L127.864 28.26H130.344ZM139.811 18.94V23.02H144.611V24.88H139.811V29.14H145.211V31H137.531V17.08H145.211V18.94H139.811ZM147.26 25.48C147.26 24.3467 147.486 23.3533 147.94 22.5C148.406 21.6333 149.046 20.9667 149.86 20.5C150.673 20.0333 151.606 19.8 152.66 19.8C153.993 19.8 155.093 20.12 155.96 20.76C156.84 21.3867 157.433 22.2867 157.74 23.46H155.28C155.08 22.9133 154.76 22.4867 154.32 22.18C153.88 21.8733 153.326 21.72 152.66 21.72C151.726 21.72 150.98 22.0533 150.42 22.72C149.873 23.3733 149.6 24.2933 149.6 25.48C149.6 26.6667 149.873 27.5933 150.42 28.26C150.98 28.9267 151.726 29.26 152.66 29.26C153.98 29.26 154.853 28.68 155.28 27.52H157.74C157.42 28.64 156.82 29.5333 155.94 30.2C155.06 30.8533 153.966 31.18 152.66 31.18C151.606 31.18 150.673 30.9467 149.86 30.48C149.046 30 148.406 29.3333 147.94 28.48C147.486 27.6133 147.26 26.6133 147.26 25.48ZM164.792 31.18C163.752 31.18 162.812 30.9467 161.972 30.48C161.132 30 160.472 29.3333 159.992 28.48C159.512 27.6133 159.272 26.6133 159.272 25.48C159.272 24.36 159.518 23.3667 160.012 22.5C160.505 21.6333 161.178 20.9667 162.032 20.5C162.885 20.0333 163.838 19.8 164.892 19.8C165.945 19.8 166.898 20.0333 167.752 20.5C168.605 20.9667 169.278 21.6333 169.772 22.5C170.265 23.3667 170.512 24.36 170.512 25.48C170.512 26.6 170.258 27.5933 169.752 28.46C169.245 29.3267 168.552 30 167.672 30.48C166.805 30.9467 165.845 31.18 164.792 31.18ZM164.792 29.2C165.378 29.2 165.925 29.06 166.432 28.78C166.952 28.5 167.372 28.08 167.692 27.52C168.012 26.96 168.172 26.28 168.172 25.48C168.172 24.68 168.018 24.0067 167.712 23.46C167.405 22.9 166.998 22.48 166.492 22.2C165.985 21.92 165.438 21.78 164.852 21.78C164.265 21.78 163.718 21.92 163.212 22.2C162.718 22.48 162.325 22.9 162.032 23.46C161.738 24.0067 161.592 24.68 161.592 25.48C161.592 26.6667 161.892 27.5867 162.492 28.24C163.105 28.88 163.872 29.2 164.792 29.2ZM186.141 17.1V18.96H180.241V23.06H184.841V24.92H180.241V31H177.961V17.1H186.141ZM190.534 21.58C190.867 21.02 191.307 20.5867 191.854 20.28C192.414 19.96 193.074 19.8 193.834 19.8V22.16H193.254C192.361 22.16 191.681 22.3867 191.214 22.84C190.761 23.2933 190.534 24.08 190.534 25.2V31H188.254V19.98H190.534V21.58ZM197.09 18.52C196.676 18.52 196.33 18.38 196.05 18.1C195.77 17.82 195.63 17.4733 195.63 17.06C195.63 16.6467 195.77 16.3 196.05 16.02C196.33 15.74 196.676 15.6 197.09 15.6C197.49 15.6 197.83 15.74 198.11 16.02C198.39 16.3 198.53 16.6467 198.53 17.06C198.53 17.4733 198.39 17.82 198.11 18.1C197.83 18.38 197.49 18.52 197.09 18.52ZM198.21 19.98V31H195.93V19.98H198.21ZM211.303 25.22C211.303 25.6333 211.276 26.0067 211.223 26.34H202.803C202.87 27.22 203.196 27.9267 203.783 28.46C204.37 28.9933 205.09 29.26 205.943 29.26C207.17 29.26 208.036 28.7467 208.543 27.72H211.003C210.67 28.7333 210.063 29.5667 209.183 30.22C208.316 30.86 207.236 31.18 205.943 31.18C204.89 31.18 203.943 30.9467 203.103 30.48C202.276 30 201.623 29.3333 201.143 28.48C200.676 27.6133 200.443 26.6133 200.443 25.48C200.443 24.3467 200.67 23.3533 201.123 22.5C201.59 21.6333 202.236 20.9667 203.063 20.5C203.903 20.0333 204.863 19.8 205.943 19.8C206.983 19.8 207.91 20.0267 208.723 20.48C209.536 20.9333 210.17 21.5733 210.623 22.4C211.076 23.2133 211.303 24.1533 211.303 25.22ZM208.923 24.5C208.91 23.66 208.61 22.9867 208.023 22.48C207.436 21.9733 206.71 21.72 205.843 21.72C205.056 21.72 204.383 21.9733 203.823 22.48C203.263 22.9733 202.93 23.6467 202.823 24.5H208.923ZM219.107 19.8C219.974 19.8 220.747 19.98 221.427 20.34C222.12 20.7 222.66 21.2333 223.047 21.94C223.434 22.6467 223.627 23.5 223.627 24.5V31H221.367V24.84C221.367 23.8533 221.12 23.1 220.627 22.58C220.134 22.0467 219.46 21.78 218.607 21.78C217.754 21.78 217.074 22.0467 216.567 22.58C216.074 23.1 215.827 23.8533 215.827 24.84V31H213.547V19.98H215.827V21.24C216.2 20.7867 216.674 20.4333 217.247 20.18C217.834 19.9267 218.454 19.8 219.107 19.8ZM225.775 25.44C225.775 24.3333 226.002 23.3533 226.455 22.5C226.922 21.6467 227.548 20.9867 228.335 20.52C229.135 20.04 230.022 19.8 230.995 19.8C231.715 19.8 232.422 19.96 233.115 20.28C233.822 20.5867 234.382 21 234.795 21.52V16.2H237.095V31H234.795V29.34C234.422 29.8733 233.902 30.3133 233.235 30.66C232.582 31.0067 231.828 31.18 230.975 31.18C230.015 31.18 229.135 30.94 228.335 30.46C227.548 29.9667 226.922 29.2867 226.455 28.42C226.002 27.54 225.775 26.5467 225.775 25.44ZM234.795 25.48C234.795 24.72 234.635 24.06 234.315 23.5C234.008 22.94 233.602 22.5133 233.095 22.22C232.588 21.9267 232.042 21.78 231.455 21.78C230.868 21.78 230.322 21.9267 229.815 22.22C229.308 22.5 228.895 22.92 228.575 23.48C228.268 24.0267 228.115 24.68 228.115 25.44C228.115 26.2 228.268 26.8667 228.575 27.44C228.895 28.0133 229.308 28.4533 229.815 28.76C230.335 29.0533 230.882 29.2 231.455 29.2C232.042 29.2 232.588 29.0533 233.095 28.76C233.602 28.4667 234.008 28.04 234.315 27.48C234.635 26.9067 234.795 26.24 234.795 25.48ZM242.37 16.2V31H240.09V16.2H242.37ZM255.283 19.98L248.523 36.18H246.163L248.403 30.82L244.063 19.98H246.603L249.703 28.38L252.923 19.98H255.283Z" fill="#273C66"/>
</svg>
