<svg width="451" height="102" viewBox="0 0 451 102" fill="none" xmlns="http://www.w3.org/2000/svg">
<path d="M450.615 25.8179L3.52383 14.4758L58.634 74.7595L379.366 97.3221L450.615 25.8179Z" fill="#2A3D8D"/>
<path d="M448 12.3457L1 26.8457L59.5 83.8457L381 87.8457L448 12.3457Z" fill="#04AA5C"/>
<path d="M114.107 50.2761C114.107 48.1044 114.592 46.1646 115.562 44.4567C116.553 42.7277 117.892 41.3888 119.578 40.44C121.286 39.4701 123.195 38.9852 125.303 38.9852C127.77 38.9852 129.931 39.6177 131.787 40.8828C133.642 42.1479 134.939 43.8979 135.677 46.1329H130.585C130.079 45.0787 129.362 44.288 128.434 43.7609C127.527 43.2338 126.473 42.9702 125.271 42.9702C123.985 42.9702 122.836 43.2759 121.824 43.8874C120.833 44.4778 120.053 45.3212 119.484 46.4176C118.935 47.514 118.661 48.8002 118.661 50.2761C118.661 51.731 118.935 53.0172 119.484 54.1347C120.053 55.2311 120.833 56.085 121.824 56.6965C122.836 57.2869 123.985 57.582 125.271 57.582C126.473 57.582 127.527 57.3185 128.434 56.7914C129.362 56.2432 130.079 55.4419 130.585 54.3877H135.677C134.939 56.6438 133.642 58.4044 131.787 59.6695C129.952 60.9135 127.791 61.5355 125.303 61.5355C123.195 61.5355 121.286 61.0611 119.578 60.1122C117.892 59.1423 116.553 57.8034 115.562 56.0956C114.592 54.3877 114.107 52.4479 114.107 50.2761ZM143.887 37.9415V61.3457H139.459V37.9415H143.887ZM164.802 43.8242V61.3457H160.343V59.1318C159.774 59.8908 159.025 60.4918 158.097 60.9345C157.191 61.3562 156.2 61.5671 155.124 61.5671C153.754 61.5671 152.542 61.2824 151.487 60.7132C150.433 60.1228 149.6 59.2688 148.989 58.1513C148.398 57.0128 148.103 55.6633 148.103 54.103V43.8242H152.531V53.4705C152.531 54.8621 152.879 55.9374 153.575 56.6965C154.27 57.4345 155.219 57.8034 156.421 57.8034C157.644 57.8034 158.603 57.4345 159.299 56.6965C159.995 55.9374 160.343 54.8621 160.343 53.4705V43.8242H164.802ZM174.326 47.4613V55.9374C174.326 56.5278 174.463 56.96 174.738 57.2341C175.033 57.4872 175.518 57.6137 176.192 57.6137H178.248V61.3457H175.465C171.733 61.3457 169.867 59.5324 169.867 55.9058V47.4613H167.78V43.8242H169.867V39.4912H174.326V43.8242H178.248V47.4613H174.326ZM180.294 52.5849C180.294 50.7716 180.663 49.1903 181.401 47.8408C182.139 46.4703 183.162 45.4161 184.469 44.6781C185.776 43.919 187.273 43.5395 188.96 43.5395C191.132 43.5395 192.924 44.0877 194.337 45.1841C195.771 46.2595 196.73 47.7776 197.215 49.7385H192.439C192.186 48.9794 191.754 48.389 191.143 47.9673C190.552 47.5246 189.814 47.3032 188.929 47.3032C187.664 47.3032 186.662 47.767 185.924 48.6948C185.186 49.6014 184.817 50.8981 184.817 52.5849C184.817 54.2506 185.186 55.5474 185.924 56.4751C186.662 57.3817 187.664 57.8351 188.929 57.8351C190.721 57.8351 191.891 57.0338 192.439 55.4314H197.215C196.73 57.329 195.771 58.8366 194.337 59.9541C192.903 61.0716 191.111 61.6303 188.96 61.6303C187.273 61.6303 185.776 61.2614 184.469 60.5234C183.162 59.7643 182.139 58.7101 181.401 57.3607C180.663 55.9901 180.294 54.3982 180.294 52.5849ZM210.327 43.5711C211.655 43.5711 212.836 43.8663 213.869 44.4567C214.902 45.026 215.703 45.8799 216.272 47.0185C216.863 48.136 217.158 49.4854 217.158 51.0668V61.3457H212.73V51.6677C212.73 50.2761 212.382 49.2113 211.686 48.4734C210.991 47.7143 210.042 47.3348 208.84 47.3348C207.617 47.3348 206.647 47.7143 205.93 48.4734C205.234 49.2113 204.887 50.2761 204.887 51.6677V61.3457H200.459V37.9415H204.887V46.0064C205.456 45.2474 206.215 44.657 207.164 44.2353C208.113 43.7925 209.167 43.5711 210.327 43.5711ZM245.889 61.3457L243.485 58.9737C241.44 60.808 238.941 61.7252 235.989 61.7252C234.366 61.7252 232.932 61.4511 231.688 60.9029C230.465 60.3336 229.516 59.5429 228.842 58.5309C228.167 57.4977 227.83 56.3064 227.83 54.957C227.83 53.5021 228.241 52.1949 229.063 51.0352C229.885 49.8755 231.098 48.9372 232.7 48.2204C232.131 47.5246 231.72 46.8604 231.467 46.2278C231.214 45.5742 231.087 44.8784 231.087 44.1404C231.087 43.1283 231.351 42.2217 231.878 41.4205C232.405 40.5982 233.153 39.9551 234.123 39.4912C235.114 39.0273 236.263 38.7954 237.571 38.7954C238.899 38.7954 240.038 39.0484 240.987 39.5545C241.935 40.0605 242.642 40.7352 243.106 41.5786C243.569 42.422 243.77 43.3603 243.706 44.3934H239.405C239.426 43.6976 239.258 43.1705 238.899 42.8121C238.541 42.4325 238.056 42.2428 237.444 42.2428C236.854 42.2428 236.358 42.422 235.958 42.7804C235.578 43.1178 235.388 43.5606 235.388 44.1088C235.388 44.6359 235.547 45.163 235.863 45.6902C236.179 46.1962 236.696 46.8287 237.413 47.5878L242.979 53.091C243.021 53.0488 243.053 53.0066 243.074 52.9645C243.095 52.9223 243.116 52.8801 243.137 52.8379L244.94 49.8333H249.558L247.344 53.7235C246.922 54.5458 246.469 55.326 245.984 56.0639L251.329 61.3457H245.889ZM236.116 58.0565C237.845 58.0565 239.374 57.445 240.702 56.2221L235.262 50.8454C233.217 51.7521 232.194 53.0383 232.194 54.704C232.194 55.6528 232.553 56.454 233.269 57.1076C233.986 57.7402 234.935 58.0565 236.116 58.0565ZM276.428 45.9116C275.922 44.9838 275.226 44.2775 274.341 43.7925C273.455 43.3076 272.422 43.0651 271.241 43.0651C269.934 43.0651 268.774 43.3603 267.762 43.9507C266.75 44.541 265.959 45.3844 265.39 46.4808C264.821 47.5773 264.536 48.8424 264.536 50.2761C264.536 51.7521 264.821 53.0383 265.39 54.1347C265.981 55.2311 266.792 56.0745 267.826 56.6649C268.859 57.2552 270.061 57.5504 271.431 57.5504C273.118 57.5504 274.499 57.1076 275.574 56.2221C276.65 55.3154 277.356 54.0609 277.693 52.4584H270.103V49.0743H282.058V52.9328C281.763 54.472 281.13 55.8953 280.16 57.2025C279.19 58.5098 277.936 59.564 276.397 60.3653C274.878 61.1454 273.171 61.5355 271.273 61.5355C269.143 61.5355 267.214 61.0611 265.485 60.1122C263.777 59.1423 262.428 57.8034 261.437 56.0956C260.467 54.3877 259.982 52.4479 259.982 50.2761C259.982 48.1044 260.467 46.1646 261.437 44.4567C262.428 42.7277 263.777 41.3888 265.485 40.44C267.214 39.4701 269.133 38.9852 271.241 38.9852C273.729 38.9852 275.89 39.5966 277.725 40.8196C279.559 42.0214 280.824 43.7187 281.52 45.9116H276.428ZM301.622 52.2054C301.622 52.8379 301.58 53.4072 301.495 53.9133H288.686C288.792 55.1784 289.234 56.1694 290.015 56.8862C290.795 57.6031 291.754 57.9616 292.893 57.9616C294.537 57.9616 295.708 57.2552 296.403 55.8425H301.179C300.673 57.5293 299.703 58.9209 298.269 60.0174C296.836 61.0927 295.075 61.6303 292.988 61.6303C291.301 61.6303 289.783 61.2614 288.433 60.5234C287.105 59.7643 286.061 58.6995 285.302 57.329C284.564 55.9585 284.195 54.3771 284.195 52.5849C284.195 50.7716 284.564 49.1797 285.302 47.8092C286.04 46.4387 287.073 45.3844 288.402 44.6465C289.73 43.9085 291.259 43.5395 292.988 43.5395C294.653 43.5395 296.14 43.8979 297.447 44.6148C298.775 45.3317 299.798 46.3543 300.515 47.6827C301.253 48.99 301.622 50.4975 301.622 52.2054ZM297.036 50.9403C297.015 49.8017 296.604 48.8951 295.802 48.2204C295.001 47.5246 294.021 47.1766 292.861 47.1766C291.765 47.1766 290.837 47.514 290.078 48.1887C289.34 48.8424 288.887 49.7595 288.718 50.9403H297.036ZM303.715 52.5217C303.715 50.7505 304.063 49.1797 304.759 47.8092C305.476 46.4387 306.435 45.3844 307.637 44.6465C308.86 43.9085 310.22 43.5395 311.717 43.5395C313.024 43.5395 314.163 43.8031 315.133 44.3302C316.124 44.8573 316.914 45.5215 317.505 46.3227V43.8242H321.964V61.3457H317.505V58.7839C316.935 59.6062 316.145 60.2915 315.133 60.8397C314.142 61.3668 312.993 61.6303 311.685 61.6303C310.209 61.6303 308.86 61.2508 307.637 60.4918C306.435 59.7327 305.476 58.6679 304.759 57.2974C304.063 55.9058 303.715 54.3139 303.715 52.5217ZM317.505 52.5849C317.505 51.5096 317.294 50.5924 316.872 49.8333C316.45 49.0532 315.881 48.4628 315.164 48.0622C314.447 47.6405 313.678 47.4297 312.855 47.4297C312.033 47.4297 311.274 47.63 310.578 48.0306C309.882 48.4312 309.313 49.0216 308.87 49.8017C308.449 50.5608 308.238 51.4674 308.238 52.5217C308.238 53.5759 308.449 54.5037 308.87 55.3049C309.313 56.085 309.882 56.6859 310.578 57.1076C311.295 57.5293 312.054 57.7402 312.855 57.7402C313.678 57.7402 314.447 57.5399 315.164 57.1393C315.881 56.7176 316.45 56.1272 316.872 55.3681C317.294 54.588 317.505 53.6603 317.505 52.5849ZM330.717 46.5441C331.286 45.6164 332.024 44.8889 332.93 44.3618C333.858 43.8347 334.912 43.5711 336.093 43.5711V48.2204H334.923C333.531 48.2204 332.477 48.5472 331.76 49.2008C331.064 49.8544 330.717 50.993 330.717 52.6166V61.3457H326.289V43.8242H330.717V46.5441Z" fill="white"/>
</svg>
