<svg width="451" height="102" viewBox="0 0 451 102" fill="none" xmlns="http://www.w3.org/2000/svg">
<path d="M450.615 25.8179L3.52383 14.4758L58.634 74.7595L379.366 97.3221L450.615 25.8179Z" fill="#2A3D8D"/>
<path d="M448 12.3457L1 26.8457L59.5 83.8457L381 87.8457L448 12.3457Z" fill="#04AA5C"/>
<path d="M139.899 39.2698C142.219 39.2698 144.253 39.7231 146.003 40.6298C147.775 41.5364 149.135 42.8332 150.083 44.52C151.053 46.1857 151.538 48.1255 151.538 50.3394C151.538 52.5533 151.053 54.4931 150.083 56.1588C149.135 57.8034 147.775 59.0791 146.003 59.9857C144.253 60.8924 142.219 61.3457 139.899 61.3457H132.182V39.2698H139.899ZM139.741 57.582C142.061 57.582 143.853 56.9495 145.118 55.6844C146.383 54.4193 147.016 52.6376 147.016 50.3394C147.016 48.0411 146.383 46.2489 145.118 44.9627C143.853 43.6555 142.061 43.0018 139.741 43.0018H136.61V57.582H139.741ZM157.098 41.7367C156.318 41.7367 155.664 41.4943 155.137 41.0093C154.631 40.5033 154.378 39.8813 154.378 39.1433C154.378 38.4053 154.631 37.7939 155.137 37.3089C155.664 36.8029 156.318 36.5499 157.098 36.5499C157.878 36.5499 158.521 36.8029 159.027 37.3089C159.555 37.7939 159.818 38.4053 159.818 39.1433C159.818 39.8813 159.555 40.5033 159.027 41.0093C158.521 41.4943 157.878 41.7367 157.098 41.7367ZM159.281 43.8242V61.3457H154.853V43.8242H159.281ZM185.415 43.5711C187.565 43.5711 189.294 44.2353 190.602 45.5637C191.93 46.8709 192.594 48.7053 192.594 51.0668V61.3457H188.166V51.6677C188.166 50.2972 187.819 49.2535 187.123 48.5366C186.427 47.7987 185.478 47.4297 184.276 47.4297C183.074 47.4297 182.115 47.7987 181.398 48.5366C180.702 49.2535 180.354 50.2972 180.354 51.6677V61.3457H175.927V51.6677C175.927 50.2972 175.579 49.2535 174.883 48.5366C174.187 47.7987 173.238 47.4297 172.036 47.4297C170.814 47.4297 169.844 47.7987 169.127 48.5366C168.431 49.2535 168.083 50.2972 168.083 51.6677V61.3457H163.655V43.8242H168.083V45.9432C168.652 45.2052 169.38 44.6254 170.265 44.2037C171.172 43.782 172.163 43.5711 173.238 43.5711C174.609 43.5711 175.832 43.8663 176.907 44.4567C177.982 45.026 178.815 45.8483 179.406 46.9236C179.975 45.9116 180.797 45.0998 181.873 44.4883C182.969 43.8769 184.15 43.5711 185.415 43.5711ZM213.084 52.2054C213.084 52.8379 213.042 53.4072 212.958 53.9133H200.148C200.254 55.1784 200.697 56.1694 201.477 56.8862C202.257 57.6031 203.216 57.9616 204.355 57.9616C206 57.9616 207.17 57.2552 207.866 55.8425H212.641C212.135 57.5293 211.165 58.9209 209.732 60.0174C208.298 61.0927 206.537 61.6303 204.45 61.6303C202.763 61.6303 201.245 61.2614 199.895 60.5234C198.567 59.7643 197.523 58.6995 196.764 57.329C196.026 55.9585 195.657 54.3771 195.657 52.5849C195.657 50.7716 196.026 49.1797 196.764 47.8092C197.502 46.4387 198.535 45.3844 199.864 44.6465C201.192 43.9085 202.721 43.5395 204.45 43.5395C206.115 43.5395 207.602 43.8979 208.909 44.6148C210.238 45.3317 211.26 46.3543 211.977 47.6827C212.715 48.99 213.084 50.4975 213.084 52.2054ZM208.498 50.9403C208.477 49.8017 208.066 48.8951 207.265 48.2204C206.463 47.5246 205.483 47.1766 204.323 47.1766C203.227 47.1766 202.299 47.514 201.54 48.1887C200.802 48.8424 200.349 49.7595 200.18 50.9403H208.498ZM226.026 43.5711C228.113 43.5711 229.8 44.2353 231.086 45.5637C232.372 46.8709 233.015 48.7053 233.015 51.0668V61.3457H228.587V51.6677C228.587 50.2761 228.239 49.2113 227.544 48.4734C226.848 47.7143 225.899 47.3348 224.697 47.3348C223.474 47.3348 222.504 47.7143 221.788 48.4734C221.092 49.2113 220.744 50.2761 220.744 51.6677V61.3457H216.316V43.8242H220.744V46.0064C221.334 45.2474 222.083 44.657 222.989 44.2353C223.917 43.7925 224.929 43.5711 226.026 43.5711ZM243.931 61.6303C242.497 61.6303 241.211 61.3773 240.072 60.8713C238.934 60.3442 238.027 59.6378 237.352 58.7523C236.699 57.8667 236.34 56.8862 236.277 55.8109H240.736C240.821 56.4856 241.148 57.0444 241.717 57.4872C242.307 57.9299 243.035 58.1513 243.899 58.1513C244.743 58.1513 245.396 57.9827 245.86 57.6453C246.345 57.3079 246.588 56.8757 246.588 56.3486C246.588 55.7793 246.292 55.3576 245.702 55.0835C245.133 54.7883 244.216 54.472 242.95 54.1347C241.643 53.8184 240.568 53.4916 239.724 53.1542C238.902 52.8169 238.185 52.3003 237.574 51.6045C236.983 50.9087 236.688 49.9704 236.688 48.7896C236.688 47.8197 236.962 46.9342 237.511 46.1329C238.08 45.3317 238.881 44.6992 239.914 44.2353C240.968 43.7714 242.202 43.5395 243.615 43.5395C245.702 43.5395 247.368 44.0666 248.612 45.1209C249.856 46.154 250.541 47.5562 250.667 49.3273H246.429C246.366 48.6315 246.071 48.0833 245.544 47.6827C245.038 47.261 244.353 47.0501 243.488 47.0501C242.687 47.0501 242.065 47.1977 241.622 47.4929C241.2 47.7881 240.99 48.1993 240.99 48.7264C240.99 49.3168 241.285 49.7701 241.875 50.0864C242.465 50.3816 243.383 50.6873 244.627 51.0036C245.892 51.3198 246.935 51.6466 247.758 51.984C248.58 52.3214 249.286 52.8485 249.877 53.5654C250.488 54.2612 250.805 55.1889 250.826 56.3486C250.826 57.3607 250.541 58.2673 249.972 59.0685C249.423 59.8698 248.622 60.5023 247.568 60.9662C246.535 61.409 245.322 61.6303 243.931 61.6303ZM256.706 41.7367C255.926 41.7367 255.272 41.4943 254.745 41.0093C254.239 40.5033 253.986 39.8813 253.986 39.1433C253.986 38.4053 254.239 37.7939 254.745 37.3089C255.272 36.8029 255.926 36.5499 256.706 36.5499C257.486 36.5499 258.129 36.8029 258.635 37.3089C259.162 37.7939 259.426 38.4053 259.426 39.1433C259.426 39.8813 259.162 40.5033 258.635 41.0093C258.129 41.4943 257.486 41.7367 256.706 41.7367ZM258.888 43.8242V61.3457H254.46V43.8242H258.888ZM271.043 61.6303C269.356 61.6303 267.838 61.2614 266.489 60.5234C265.139 59.7643 264.075 58.6995 263.294 57.329C262.535 55.9585 262.156 54.3771 262.156 52.5849C262.156 50.7927 262.546 49.2113 263.326 47.8408C264.127 46.4703 265.213 45.4161 266.584 44.6781C267.954 43.919 269.483 43.5395 271.17 43.5395C272.856 43.5395 274.385 43.919 275.756 44.6781C277.126 45.4161 278.201 46.4703 278.982 47.8408C279.783 49.2113 280.183 50.7927 280.183 52.5849C280.183 54.3771 279.772 55.9585 278.95 57.329C278.149 58.6995 277.052 59.7643 275.661 60.5234C274.29 61.2614 272.751 61.6303 271.043 61.6303ZM271.043 57.7718C271.844 57.7718 272.593 57.582 273.289 57.2025C274.006 56.8019 274.575 56.2115 274.997 55.4314C275.418 54.6512 275.629 53.7024 275.629 52.5849C275.629 50.9192 275.186 49.6436 274.301 48.758C273.436 47.8514 272.371 47.398 271.106 47.398C269.841 47.398 268.777 47.8514 267.912 48.758C267.069 49.6436 266.647 50.9192 266.647 52.5849C266.647 54.2506 267.058 55.5368 267.88 56.4435C268.724 57.329 269.778 57.7718 271.043 57.7718ZM293.141 43.5711C295.228 43.5711 296.915 44.2353 298.201 45.5637C299.488 46.8709 300.131 48.7053 300.131 51.0668V61.3457H295.703V51.6677C295.703 50.2761 295.355 49.2113 294.659 48.4734C293.963 47.7143 293.015 47.3348 291.813 47.3348C290.59 47.3348 289.62 47.7143 288.903 48.4734C288.207 49.2113 287.859 50.2761 287.859 51.6677V61.3457H283.431V43.8242H287.859V46.0064C288.45 45.2474 289.198 44.657 290.105 44.2353C291.033 43.7925 292.045 43.5711 293.141 43.5711ZM311.046 61.6303C309.613 61.6303 308.326 61.3773 307.188 60.8713C306.049 60.3442 305.143 59.6378 304.468 58.7523C303.814 57.8667 303.456 56.8862 303.392 55.8109H307.852C307.936 56.4856 308.263 57.0444 308.832 57.4872C309.423 57.9299 310.15 58.1513 311.015 58.1513C311.858 58.1513 312.512 57.9827 312.976 57.6453C313.461 57.3079 313.703 56.8757 313.703 56.3486C313.703 55.7793 313.408 55.3576 312.817 55.0835C312.248 54.7883 311.331 54.472 310.066 54.1347C308.759 53.8184 307.683 53.4916 306.84 53.1542C306.018 52.8169 305.301 52.3003 304.689 51.6045C304.099 50.9087 303.804 49.9704 303.804 48.7896C303.804 47.8197 304.078 46.9342 304.626 46.1329C305.195 45.3317 305.996 44.6992 307.03 44.2353C308.084 43.7714 309.317 43.5395 310.73 43.5395C312.817 43.5395 314.483 44.0666 315.727 45.1209C316.971 46.154 317.656 47.5562 317.783 49.3273H313.545C313.482 48.6315 313.186 48.0833 312.659 47.6827C312.153 47.261 311.468 47.0501 310.604 47.0501C309.802 47.0501 309.18 47.1977 308.738 47.4929C308.316 47.7881 308.105 48.1993 308.105 48.7264C308.105 49.3168 308.4 49.7701 308.991 50.0864C309.581 50.3816 310.498 50.6873 311.742 51.0036C313.007 51.3198 314.051 51.6466 314.873 51.984C315.696 52.3214 316.402 52.8485 316.992 53.5654C317.604 54.2612 317.92 55.1889 317.941 56.3486C317.941 57.3607 317.656 58.2673 317.087 59.0685C316.539 59.8698 315.738 60.5023 314.683 60.9662C313.65 61.409 312.438 61.6303 311.046 61.6303Z" fill="white"/>
</svg>
