<svg width="451" height="102" viewBox="0 0 451 102" fill="none" xmlns="http://www.w3.org/2000/svg">
<path d="M450.615 25.8179L3.52383 14.4758L58.634 74.7595L379.366 97.3221L450.615 25.8179Z" fill="#2A3D8D"/>
<path d="M448 12.3457L1 26.8457L59.5 83.8457L381 87.8457L448 12.3457Z" fill="#04AA5C"/>
<path d="M176.61 42.8437V48.3785H184.043V51.8891H176.61V57.7402H184.991V61.3457H172.182V39.2382H184.991V42.8437H176.61ZM198.725 43.5711C200.812 43.5711 202.499 44.2353 203.785 45.5637C205.071 46.8709 205.714 48.7053 205.714 51.0668V61.3457H201.287V51.6677C201.287 50.2761 200.939 49.2113 200.243 48.4734C199.547 47.7143 198.598 47.3348 197.396 47.3348C196.174 47.3348 195.204 47.7143 194.487 48.4734C193.791 49.2113 193.443 50.2761 193.443 51.6677V61.3457H189.015V43.8242H193.443V46.0064C194.033 45.2474 194.782 44.657 195.689 44.2353C196.616 43.7925 197.628 43.5711 198.725 43.5711ZM216.788 43.5395C218.095 43.5395 219.245 43.8031 220.236 44.3302C221.227 44.8362 222.007 45.5004 222.576 46.3227V43.8242H227.035V61.4722C227.035 63.0957 226.709 64.5401 226.055 65.8052C225.401 67.0913 224.421 68.1034 223.114 68.8414C221.806 69.6004 220.225 69.98 218.37 69.98C215.882 69.98 213.836 69.4001 212.234 68.2405C210.653 67.0808 209.756 65.4994 209.546 63.4964H213.942C214.174 64.2976 214.669 64.9301 215.428 65.394C216.208 65.879 217.147 66.1214 218.243 66.1214C219.529 66.1214 220.573 65.7314 221.374 64.9512C222.175 64.1922 222.576 63.0325 222.576 61.4722V58.7523C222.007 59.5746 221.216 60.2598 220.204 60.808C219.213 61.3562 218.074 61.6303 216.788 61.6303C215.312 61.6303 213.963 61.2508 212.74 60.4918C211.517 59.7327 210.547 58.6679 209.83 57.2974C209.134 55.9058 208.787 54.3139 208.787 52.5217C208.787 50.7505 209.134 49.1797 209.83 47.8092C210.547 46.4387 211.506 45.3844 212.708 44.6465C213.931 43.9085 215.291 43.5395 216.788 43.5395ZM222.576 52.5849C222.576 51.5096 222.365 50.5924 221.943 49.8333C221.522 49.0532 220.952 48.4628 220.236 48.0622C219.519 47.6405 218.749 47.4297 217.927 47.4297C217.104 47.4297 216.345 47.63 215.65 48.0306C214.954 48.4312 214.385 49.0216 213.942 49.8017C213.52 50.5608 213.309 51.4674 213.309 52.5217C213.309 53.5759 213.52 54.5037 213.942 55.3049C214.385 56.085 214.954 56.6859 215.65 57.1076C216.367 57.5293 217.126 57.7402 217.927 57.7402C218.749 57.7402 219.519 57.5399 220.236 57.1393C220.952 56.7176 221.522 56.1272 221.943 55.3681C222.365 54.588 222.576 53.6603 222.576 52.5849ZM233.606 41.7367C232.825 41.7367 232.172 41.4943 231.645 41.0093C231.139 40.5033 230.886 39.8813 230.886 39.1433C230.886 38.4053 231.139 37.7939 231.645 37.3089C232.172 36.8029 232.825 36.5499 233.606 36.5499C234.386 36.5499 235.029 36.8029 235.535 37.3089C236.062 37.7939 236.326 38.4053 236.326 39.1433C236.326 39.8813 236.062 40.5033 235.535 41.0093C235.029 41.4943 234.386 41.7367 233.606 41.7367ZM235.788 43.8242V61.3457H231.36V43.8242H235.788ZM249.872 43.5711C251.96 43.5711 253.646 44.2353 254.933 45.5637C256.219 46.8709 256.862 48.7053 256.862 51.0668V61.3457H252.434V51.6677C252.434 50.2761 252.086 49.2113 251.39 48.4734C250.694 47.7143 249.746 47.3348 248.544 47.3348C247.321 47.3348 246.351 47.7143 245.634 48.4734C244.938 49.2113 244.59 50.2761 244.59 51.6677V61.3457H240.163V43.8242H244.59V46.0064C245.181 45.2474 245.929 44.657 246.836 44.2353C247.764 43.7925 248.776 43.5711 249.872 43.5711ZM277.361 52.2054C277.361 52.8379 277.318 53.4072 277.234 53.9133H264.425C264.53 55.1784 264.973 56.1694 265.753 56.8862C266.533 57.6031 267.493 57.9616 268.631 57.9616C270.276 57.9616 271.446 57.2552 272.142 55.8425H276.918C276.412 57.5293 275.442 58.9209 274.008 60.0174C272.574 61.0927 270.814 61.6303 268.726 61.6303C267.039 61.6303 265.521 61.2614 264.172 60.5234C262.844 59.7643 261.8 58.6995 261.041 57.329C260.303 55.9585 259.934 54.3771 259.934 52.5849C259.934 50.7716 260.303 49.1797 261.041 47.8092C261.779 46.4387 262.812 45.3844 264.14 44.6465C265.469 43.9085 266.997 43.5395 268.726 43.5395C270.392 43.5395 271.878 43.8979 273.186 44.6148C274.514 45.3317 275.537 46.3543 276.254 47.6827C276.992 48.99 277.361 50.4975 277.361 52.2054ZM272.775 50.9403C272.753 49.8017 272.342 48.8951 271.541 48.2204C270.74 47.5246 269.759 47.1766 268.6 47.1766C267.503 47.1766 266.576 47.514 265.817 48.1887C265.079 48.8424 264.625 49.7595 264.457 50.9403H272.775Z" fill="white"/>
</svg>
