<svg width="451" height="102" viewBox="0 0 451 102" fill="none" xmlns="http://www.w3.org/2000/svg">
<path d="M450.615 25.8179L3.52383 14.4758L58.634 74.7595L379.366 97.3221L450.615 25.8179Z" fill="#2A3D8D"/>
<path d="M448 12.3457L1 26.8457L59.5 83.8457L381 87.8457L448 12.3457Z" fill="#04AA5C"/>
<path d="M147.251 39.2698V61.3457H142.823V46.9869L136.909 61.3457H133.556L127.61 46.9869V61.3457H123.182V39.2698H128.211L135.232 55.6844L142.254 39.2698H147.251ZM150.49 52.5217C150.49 50.7505 150.838 49.1797 151.533 47.8092C152.25 46.4387 153.21 45.3844 154.412 44.6465C155.635 43.9085 156.994 43.5395 158.492 43.5395C159.799 43.5395 160.937 43.8031 161.907 44.3302C162.898 44.8573 163.689 45.5215 164.279 46.3227V43.8242H168.739V61.3457H164.279V58.7839C163.71 59.6062 162.919 60.2915 161.907 60.8397C160.916 61.3668 159.767 61.6303 158.46 61.6303C156.984 61.6303 155.635 61.2508 154.412 60.4918C153.21 59.7327 152.25 58.6679 151.533 57.2974C150.838 55.9058 150.49 54.3139 150.49 52.5217ZM164.279 52.5849C164.279 51.5096 164.068 50.5924 163.647 49.8333C163.225 49.0532 162.656 48.4628 161.939 48.0622C161.222 47.6405 160.452 47.4297 159.63 47.4297C158.808 47.4297 158.049 47.63 157.353 48.0306C156.657 48.4312 156.088 49.0216 155.645 49.8017C155.223 50.5608 155.012 51.4674 155.012 52.5217C155.012 53.5759 155.223 54.5037 155.645 55.3049C156.088 56.085 156.657 56.6859 157.353 57.1076C158.07 57.5293 158.829 57.7402 159.63 57.7402C160.452 57.7402 161.222 57.5399 161.939 57.1393C162.656 56.7176 163.225 56.1272 163.647 55.3681C164.068 54.588 164.279 53.6603 164.279 52.5849ZM179.768 61.6303C178.335 61.6303 177.048 61.3773 175.91 60.8713C174.771 60.3442 173.865 59.6378 173.19 58.7523C172.536 57.8667 172.178 56.8862 172.114 55.8109H176.574C176.658 56.4856 176.985 57.0444 177.554 57.4872C178.145 57.9299 178.872 58.1513 179.737 58.1513C180.58 58.1513 181.234 57.9827 181.698 57.6453C182.183 57.3079 182.425 56.8757 182.425 56.3486C182.425 55.7793 182.13 55.3576 181.539 55.0835C180.97 54.7883 180.053 54.472 178.788 54.1347C177.481 53.8184 176.405 53.4916 175.562 53.1542C174.74 52.8169 174.023 52.3003 173.411 51.6045C172.821 50.9087 172.526 49.9704 172.526 48.7896C172.526 47.8197 172.8 46.9342 173.348 46.1329C173.917 45.3317 174.718 44.6992 175.752 44.2353C176.806 43.7714 178.039 43.5395 179.452 43.5395C181.539 43.5395 183.205 44.0666 184.449 45.1209C185.693 46.154 186.378 47.5562 186.505 49.3273H182.267C182.204 48.6315 181.908 48.0833 181.381 47.6827C180.875 47.261 180.19 47.0501 179.326 47.0501C178.524 47.0501 177.902 47.1977 177.46 47.4929C177.038 47.7881 176.827 48.1993 176.827 48.7264C176.827 49.3168 177.122 49.7701 177.713 50.0864C178.303 50.3816 179.22 50.6873 180.464 51.0036C181.729 51.3198 182.773 51.6466 183.595 51.984C184.418 52.3214 185.124 52.8485 185.714 53.5654C186.326 54.2612 186.642 55.1889 186.663 56.3486C186.663 57.3607 186.378 58.2673 185.809 59.0685C185.261 59.8698 184.46 60.5023 183.405 60.9662C182.372 61.409 181.16 61.6303 179.768 61.6303ZM197.003 61.6303C195.569 61.6303 194.283 61.3773 193.144 60.8713C192.006 60.3442 191.099 59.6378 190.424 58.7523C189.771 57.8667 189.412 56.8862 189.349 55.8109H193.808C193.893 56.4856 194.22 57.0444 194.789 57.4872C195.379 57.9299 196.107 58.1513 196.971 58.1513C197.815 58.1513 198.468 57.9827 198.932 57.6453C199.417 57.3079 199.659 56.8757 199.659 56.3486C199.659 55.7793 199.364 55.3576 198.774 55.0835C198.205 54.7883 197.287 54.472 196.022 54.1347C194.715 53.8184 193.64 53.4916 192.796 53.1542C191.974 52.8169 191.257 52.3003 190.646 51.6045C190.055 50.9087 189.76 49.9704 189.76 48.7896C189.76 47.8197 190.034 46.9342 190.582 46.1329C191.152 45.3317 191.953 44.6992 192.986 44.2353C194.04 43.7714 195.274 43.5395 196.686 43.5395C198.774 43.5395 200.44 44.0666 201.684 45.1209C202.928 46.154 203.613 47.5562 203.739 49.3273H199.501C199.438 48.6315 199.143 48.0833 198.616 47.6827C198.11 47.261 197.424 47.0501 196.56 47.0501C195.759 47.0501 195.137 47.1977 194.694 47.4929C194.272 47.7881 194.061 48.1993 194.061 48.7264C194.061 49.3168 194.357 49.7701 194.947 50.0864C195.537 50.3816 196.455 50.6873 197.699 51.0036C198.964 51.3198 200.007 51.6466 200.83 51.984C201.652 52.3214 202.358 52.8485 202.949 53.5654C203.56 54.2612 203.876 55.1889 203.898 56.3486C203.898 57.3607 203.613 58.2673 203.044 59.0685C202.495 59.8698 201.694 60.5023 200.64 60.9662C199.607 61.409 198.394 61.6303 197.003 61.6303ZM244.577 39.2698L238.409 61.3457H233.191L229.048 45.6269L224.715 61.3457L219.528 61.3773L213.582 39.2698H218.326L222.216 56.4118L226.707 39.2698H231.641L235.879 56.317L239.801 39.2698H244.577ZM263.756 52.2054C263.756 52.8379 263.714 53.4072 263.629 53.9133H250.82C250.926 55.1784 251.369 56.1694 252.149 56.8862C252.929 57.6031 253.888 57.9616 255.027 57.9616C256.671 57.9616 257.842 57.2552 258.537 55.8425H263.313C262.807 57.5293 261.837 58.9209 260.403 60.0174C258.97 61.0927 257.209 61.6303 255.122 61.6303C253.435 61.6303 251.917 61.2614 250.567 60.5234C249.239 59.7643 248.195 58.6995 247.436 57.329C246.698 55.9585 246.329 54.3771 246.329 52.5849C246.329 50.7716 246.698 49.1797 247.436 47.8092C248.174 46.4387 249.207 45.3844 250.536 44.6465C251.864 43.9085 253.393 43.5395 255.122 43.5395C256.787 43.5395 258.274 43.8979 259.581 44.6148C260.91 45.3317 261.932 46.3543 262.649 47.6827C263.387 48.99 263.756 50.4975 263.756 52.2054ZM259.17 50.9403C259.149 49.8017 258.738 48.8951 257.937 48.2204C257.135 47.5246 256.155 47.1766 254.995 47.1766C253.899 47.1766 252.971 47.514 252.212 48.1887C251.474 48.8424 251.021 49.7595 250.852 50.9403H259.17ZM269.233 41.7367C268.453 41.7367 267.8 41.4943 267.273 41.0093C266.766 40.5033 266.513 39.8813 266.513 39.1433C266.513 38.4053 266.766 37.7939 267.273 37.3089C267.8 36.8029 268.453 36.5499 269.233 36.5499C270.014 36.5499 270.657 36.8029 271.163 37.3089C271.69 37.7939 271.953 38.4053 271.953 39.1433C271.953 39.8813 271.69 40.5033 271.163 41.0093C270.657 41.4943 270.014 41.7367 269.233 41.7367ZM271.416 43.8242V61.3457H266.988V43.8242H271.416ZM282.654 43.5395C283.961 43.5395 285.11 43.8031 286.101 44.3302C287.092 44.8362 287.872 45.5004 288.441 46.3227V43.8242H292.901V61.4722C292.901 63.0957 292.574 64.5401 291.92 65.8052C291.267 67.0913 290.286 68.1034 288.979 68.8414C287.672 69.6004 286.09 69.98 284.235 69.98C281.747 69.98 279.702 69.4001 278.099 68.2405C276.518 67.0808 275.622 65.4994 275.411 63.4964H279.807C280.039 64.2976 280.535 64.9301 281.294 65.394C282.074 65.879 283.012 66.1214 284.108 66.1214C285.395 66.1214 286.438 65.7314 287.24 64.9512C288.041 64.1922 288.441 63.0325 288.441 61.4722V58.7523C287.872 59.5746 287.081 60.2598 286.069 60.808C285.078 61.3562 283.94 61.6303 282.654 61.6303C281.178 61.6303 279.828 61.2508 278.605 60.4918C277.382 59.7327 276.412 58.6679 275.696 57.2974C275 55.9058 274.652 54.3139 274.652 52.5217C274.652 50.7505 275 49.1797 275.696 47.8092C276.412 46.4387 277.372 45.3844 278.574 44.6465C279.797 43.9085 281.157 43.5395 282.654 43.5395ZM288.441 52.5849C288.441 51.5096 288.231 50.5924 287.809 49.8333C287.387 49.0532 286.818 48.4628 286.101 48.0622C285.384 47.6405 284.614 47.4297 283.792 47.4297C282.97 47.4297 282.211 47.63 281.515 48.0306C280.819 48.4312 280.25 49.0216 279.807 49.8017C279.385 50.5608 279.175 51.4674 279.175 52.5217C279.175 53.5759 279.385 54.5037 279.807 55.3049C280.25 56.085 280.819 56.6859 281.515 57.1076C282.232 57.5293 282.991 57.7402 283.792 57.7402C284.614 57.7402 285.384 57.5399 286.101 57.1393C286.818 56.7176 287.387 56.1272 287.809 55.3681C288.231 54.588 288.441 53.6603 288.441 52.5849ZM307.093 43.5711C308.421 43.5711 309.602 43.8663 310.635 44.4567C311.669 45.026 312.47 45.8799 313.039 47.0185C313.629 48.136 313.925 49.4854 313.925 51.0668V61.3457H309.497V51.6677C309.497 50.2761 309.149 49.2113 308.453 48.4734C307.757 47.7143 306.808 47.3348 305.607 47.3348C304.384 47.3348 303.414 47.7143 302.697 48.4734C302.001 49.2113 301.653 50.2761 301.653 51.6677V61.3457H297.225V37.9415H301.653V46.0064C302.222 45.2474 302.982 44.657 303.93 44.2353C304.879 43.7925 305.933 43.5711 307.093 43.5711ZM323.291 47.4613V55.9374C323.291 56.5278 323.428 56.96 323.702 57.2341C323.997 57.4872 324.482 57.6137 325.157 57.6137H327.212V61.3457H324.429C320.697 61.3457 318.831 59.5324 318.831 55.9058V47.4613H316.744V43.8242H318.831V39.4912H323.291V43.8242H327.212V47.4613H323.291Z" fill="white"/>
</svg>
