<svg width="451" height="102" viewBox="0 0 451 102" fill="none" xmlns="http://www.w3.org/2000/svg">
<path d="M450.615 26.4722L3.52383 15.1301L58.634 75.4138L379.366 97.9764L450.615 26.4722Z" fill="#2A3D8D"/>
<path d="M448 13L1 27.5L59.5 84.5L381 88.5L448 13Z" fill="#04AA5C"/>
<path d="M79.2053 39.9241V43.498H73.3226V62H68.8948V43.498H63.0121V39.9241H79.2053ZM98.724 52.8597C98.724 53.4922 98.6819 54.0615 98.5975 54.5676H85.7885C85.8939 55.8327 86.3367 56.8237 87.1168 57.5405C87.897 58.2574 88.8563 58.6159 89.9949 58.6159C91.6395 58.6159 92.8097 57.9095 93.5055 56.4968H98.2813C97.7752 58.1836 96.8053 59.5752 95.3715 60.6717C93.9378 61.747 92.1772 62.2846 90.0898 62.2846C88.403 62.2846 86.8849 61.9157 85.5354 61.1777C84.2071 60.4186 83.1634 59.3538 82.4043 57.9833C81.6664 56.6128 81.2974 55.0314 81.2974 53.2392C81.2974 51.4259 81.6664 49.834 82.4043 48.4635C83.1423 47.093 84.1755 46.0387 85.5038 45.3008C86.8322 44.5628 88.3608 44.1938 90.0898 44.1938C91.7555 44.1938 93.242 44.5522 94.5492 45.2691C95.8776 45.986 96.9002 47.0086 97.6171 48.337C98.3551 49.6442 98.724 51.1518 98.724 52.8597ZM94.1381 51.5946C94.117 50.456 93.7058 49.5494 92.9046 48.8746C92.1034 48.1788 91.1229 47.8309 89.9633 47.8309C88.8669 47.8309 87.9391 48.1683 87.1801 48.843C86.4421 49.4967 85.9888 50.4138 85.8201 51.5946H94.1381ZM100.817 53.2392C100.817 51.4259 101.186 49.8446 101.924 48.4951C102.662 47.1246 103.685 46.0704 104.992 45.3324C106.299 44.5733 107.796 44.1938 109.483 44.1938C111.655 44.1938 113.447 44.742 114.86 45.8384C116.294 46.9138 117.253 48.4319 117.738 50.3928H112.962C112.709 49.6337 112.277 49.0433 111.666 48.6216C111.075 48.1788 110.337 47.9575 109.452 47.9575C108.187 47.9575 107.185 48.4213 106.447 49.3491C105.709 50.2557 105.34 51.5524 105.34 53.2392C105.34 54.9049 105.709 56.2017 106.447 57.1294C107.185 58.036 108.187 58.4894 109.452 58.4894C111.244 58.4894 112.414 57.6881 112.962 56.0857H117.738C117.253 57.9833 116.294 59.4909 114.86 60.6084C113.426 61.7259 111.634 62.2846 109.483 62.2846C107.796 62.2846 106.299 61.9157 104.992 61.1777C103.685 60.4186 102.662 59.3644 101.924 58.015C101.186 56.6444 100.817 55.0525 100.817 53.2392ZM130.85 44.2254C132.178 44.2254 133.359 44.5206 134.392 45.111C135.425 45.6803 136.226 46.5342 136.795 47.6728C137.386 48.7903 137.681 50.1397 137.681 51.7211V62H133.253V52.322C133.253 50.9304 132.905 49.8656 132.21 49.1277C131.514 48.3686 130.565 47.9891 129.363 47.9891C128.14 47.9891 127.17 48.3686 126.453 49.1277C125.758 49.8656 125.41 50.9304 125.41 52.322V62H120.982V38.5958H125.41V46.6607C125.979 45.9017 126.738 45.3113 127.687 44.8896C128.636 44.4468 129.69 44.2254 130.85 44.2254ZM143.853 62.2214C143.051 62.2214 142.387 61.9789 141.86 61.494C141.354 60.9879 141.101 60.3659 141.101 59.6279C141.101 58.89 141.354 58.2785 141.86 57.7936C142.387 57.2875 143.051 57.0345 143.853 57.0345C144.633 57.0345 145.276 57.2875 145.782 57.7936C146.288 58.2785 146.541 58.89 146.541 59.6279C146.541 60.3659 146.288 60.9879 145.782 61.494C145.276 61.9789 144.633 62.2214 143.853 62.2214ZM165.266 62.2214C163.727 62.2214 162.335 61.9578 161.091 61.4307C159.868 60.9036 158.898 60.1445 158.181 59.1535C157.464 58.1625 157.095 56.9923 157.074 55.6429H161.818C161.882 56.5496 162.198 57.2664 162.767 57.7936C163.358 58.3207 164.159 58.5842 165.171 58.5842C166.204 58.5842 167.016 58.3418 167.606 57.8568C168.197 57.3508 168.492 56.6971 168.492 55.8959C168.492 55.2423 168.291 54.7046 167.891 54.2829C167.49 53.8612 166.984 53.5344 166.373 53.3025C165.782 53.0495 164.96 52.7754 163.906 52.4802C162.472 52.0585 161.302 51.6473 160.395 51.2467C159.51 50.825 158.74 50.203 158.086 49.3807C157.454 48.5373 157.138 47.4198 157.138 46.0282C157.138 44.7209 157.464 43.5823 158.118 42.6124C158.772 41.6425 159.689 40.9046 160.87 40.3985C162.05 39.8714 163.4 39.6078 164.918 39.6078C167.195 39.6078 169.04 40.1666 170.453 41.2841C171.886 42.3805 172.677 43.9197 172.825 45.9017H167.954C167.912 45.1426 167.585 44.5206 166.974 44.0357C166.383 43.5296 165.593 43.2766 164.602 43.2766C163.737 43.2766 163.041 43.498 162.514 43.9408C162.008 44.3836 161.755 45.0267 161.755 45.87C161.755 46.4604 161.945 46.9559 162.324 47.3565C162.725 47.7361 163.21 48.0523 163.779 48.3054C164.37 48.5373 165.192 48.8114 166.246 49.1277C167.68 49.5494 168.85 49.9711 169.757 50.3928C170.664 50.8145 171.444 51.447 172.097 52.2904C172.751 53.1338 173.078 54.2408 173.078 55.6113C173.078 56.792 172.772 57.8884 172.161 58.9005C171.549 59.9126 170.653 60.7244 169.472 61.3358C168.291 61.9262 166.889 62.2214 165.266 62.2214ZM181.344 47.0086C181.914 46.2074 182.694 45.5432 183.685 45.0161C184.697 44.4679 185.846 44.1938 187.132 44.1938C188.629 44.1938 189.979 44.5628 191.18 45.3008C192.403 46.0387 193.363 47.093 194.059 48.4635C194.775 49.8129 195.134 51.3838 195.134 53.176C195.134 54.9682 194.775 56.5601 194.059 57.9517C193.363 59.3222 192.403 60.387 191.18 61.1461C189.979 61.9051 188.629 62.2846 187.132 62.2846C185.846 62.2846 184.707 62.0211 183.716 61.494C182.746 60.9668 181.956 60.3027 181.344 59.5014V70.3496H176.916V44.4784H181.344V47.0086ZM190.611 53.176C190.611 52.1217 190.39 51.2151 189.947 50.456C189.525 49.6759 188.956 49.0855 188.239 48.6849C187.543 48.2843 186.784 48.084 185.962 48.084C185.161 48.084 184.402 48.2948 183.685 48.7165C182.989 49.1171 182.42 49.7075 181.977 50.4876C181.555 51.2678 181.344 52.185 181.344 53.2392C181.344 54.2935 181.555 55.2107 181.977 55.9908C182.42 56.7709 182.989 57.3719 183.685 57.7936C184.402 58.1942 185.161 58.3945 185.962 58.3945C186.784 58.3945 187.543 58.1836 188.239 57.7619C188.956 57.3402 189.525 56.7393 189.947 55.9592C190.39 55.179 190.611 54.2513 190.611 53.176ZM214.64 52.8597C214.64 53.4922 214.597 54.0615 214.513 54.5676H201.704C201.809 55.8327 202.252 56.8237 203.032 57.5405C203.812 58.2574 204.772 58.6159 205.91 58.6159C207.555 58.6159 208.725 57.9095 209.421 56.4968H214.197C213.691 58.1836 212.721 59.5752 211.287 60.6717C209.853 61.747 208.093 62.2846 206.005 62.2846C204.318 62.2846 202.8 61.9157 201.451 61.1777C200.123 60.4186 199.079 59.3538 198.32 57.9833C197.582 56.6128 197.213 55.0314 197.213 53.2392C197.213 51.4259 197.582 49.834 198.32 48.4635C199.058 47.093 200.091 46.0387 201.419 45.3008C202.748 44.5628 204.276 44.1938 206.005 44.1938C207.671 44.1938 209.157 44.5522 210.465 45.2691C211.793 45.986 212.816 47.0086 213.533 48.337C214.271 49.6442 214.64 51.1518 214.64 52.8597ZM210.054 51.5946C210.032 50.456 209.621 49.5494 208.82 48.8746C208.019 48.1788 207.038 47.8309 205.879 47.8309C204.782 47.8309 203.855 48.1683 203.096 48.843C202.358 49.4967 201.904 50.4138 201.736 51.5946H210.054ZM216.733 53.2392C216.733 51.4259 217.102 49.8446 217.84 48.4951C218.578 47.1246 219.6 46.0704 220.908 45.3324C222.215 44.5733 223.712 44.1938 225.399 44.1938C227.57 44.1938 229.363 44.742 230.775 45.8384C232.209 46.9138 233.169 48.4319 233.653 50.3928H228.878C228.625 49.6337 228.192 49.0433 227.581 48.6216C226.991 48.1788 226.253 47.9575 225.367 47.9575C224.102 47.9575 223.1 48.4213 222.363 49.3491C221.625 50.2557 221.256 51.5524 221.256 53.2392C221.256 54.9049 221.625 56.2017 222.363 57.1294C223.1 58.036 224.102 58.4894 225.367 58.4894C227.159 58.4894 228.33 57.6881 228.878 56.0857H233.653C233.169 57.9833 232.209 59.4909 230.775 60.6084C229.342 61.7259 227.549 62.2846 225.399 62.2846C223.712 62.2846 222.215 61.9157 220.908 61.1777C219.6 60.4186 218.578 59.3644 217.84 58.015C217.102 56.6444 216.733 55.0525 216.733 53.2392ZM239.143 42.391C238.363 42.391 237.709 42.1486 237.182 41.6636C236.676 41.1576 236.423 40.5356 236.423 39.7976C236.423 39.0596 236.676 38.4482 237.182 37.9632C237.709 37.4572 238.363 37.2042 239.143 37.2042C239.923 37.2042 240.566 37.4572 241.072 37.9632C241.599 38.4482 241.863 39.0596 241.863 39.7976C241.863 40.5356 241.599 41.1576 241.072 41.6636C240.566 42.1486 239.923 42.391 239.143 42.391ZM241.325 44.4784V62H236.897V44.4784H241.325ZM253.733 48.1156H250.665V62H246.174V48.1156H244.182V44.4784H246.174V43.5929C246.174 41.4422 246.786 39.8609 248.009 38.8488C249.232 37.8367 251.076 37.3623 253.543 37.4255V41.1576C252.468 41.1365 251.72 41.3157 251.298 41.6952C250.876 42.0748 250.665 42.76 250.665 43.751V44.4784H253.733V48.1156ZM258.848 42.391C258.068 42.391 257.414 42.1486 256.887 41.6636C256.381 41.1576 256.128 40.5356 256.128 39.7976C256.128 39.0596 256.381 38.4482 256.887 37.9632C257.414 37.4572 258.068 37.2042 258.848 37.2042C259.628 37.2042 260.271 37.4572 260.777 37.9632C261.305 38.4482 261.568 39.0596 261.568 39.7976C261.568 40.5356 261.305 41.1576 260.777 41.6636C260.271 42.1486 259.628 42.391 258.848 42.391ZM261.03 44.4784V62H256.603V44.4784H261.03ZM264.267 53.2392C264.267 51.4259 264.636 49.8446 265.373 48.4951C266.111 47.1246 267.134 46.0704 268.441 45.3324C269.749 44.5733 271.246 44.1938 272.932 44.1938C275.104 44.1938 276.896 44.742 278.309 45.8384C279.743 46.9138 280.702 48.4319 281.187 50.3928H276.411C276.158 49.6337 275.726 49.0433 275.115 48.6216C274.524 48.1788 273.786 47.9575 272.901 47.9575C271.636 47.9575 270.634 48.4213 269.896 49.3491C269.158 50.2557 268.789 51.5524 268.789 53.2392C268.789 54.9049 269.158 56.2017 269.896 57.1294C270.634 58.036 271.636 58.4894 272.901 58.4894C274.693 58.4894 275.863 57.6881 276.411 56.0857H281.187C280.702 57.9833 279.743 59.4909 278.309 60.6084C276.875 61.7259 275.083 62.2846 272.932 62.2846C271.246 62.2846 269.749 61.9157 268.441 61.1777C267.134 60.4186 266.111 59.3644 265.373 58.015C264.636 56.6444 264.267 55.0525 264.267 53.2392ZM283.292 53.176C283.292 51.4048 283.64 49.834 284.336 48.4635C285.053 47.093 286.012 46.0387 287.214 45.3008C288.437 44.5628 289.797 44.1938 291.294 44.1938C292.601 44.1938 293.74 44.4574 294.71 44.9845C295.701 45.5116 296.492 46.1758 297.082 46.977V44.4784H301.541V62H297.082V59.4382C296.513 60.2605 295.722 60.9458 294.71 61.494C293.719 62.0211 292.57 62.2846 291.262 62.2846C289.787 62.2846 288.437 61.9051 287.214 61.1461C286.012 60.387 285.053 59.3222 284.336 57.9517C283.64 56.5601 283.292 54.9682 283.292 53.176ZM297.082 53.2392C297.082 52.1639 296.871 51.2467 296.449 50.4876C296.028 49.7075 295.458 49.1171 294.741 48.7165C294.025 48.2948 293.255 48.084 292.433 48.084C291.61 48.084 290.851 48.2843 290.155 48.6849C289.46 49.0855 288.89 49.6759 288.448 50.456C288.026 51.2151 287.815 52.1217 287.815 53.176C287.815 54.2302 288.026 55.1579 288.448 55.9592C288.89 56.7393 289.46 57.3402 290.155 57.7619C290.872 58.1836 291.631 58.3945 292.433 58.3945C293.255 58.3945 294.025 58.1942 294.741 57.7936C295.458 57.3719 296.028 56.7815 296.449 56.0224C296.871 55.2423 297.082 54.3146 297.082 53.2392ZM311.021 48.1156V56.5917C311.021 57.1821 311.158 57.6143 311.432 57.8884C311.727 58.1415 312.212 58.268 312.887 58.268H314.943V62H312.16C308.428 62 306.562 60.1867 306.562 56.5601V48.1156H304.474V44.4784H306.562V40.1455H311.021V44.4784H314.943V48.1156H311.021ZM320.373 42.391C319.593 42.391 318.939 42.1486 318.412 41.6636C317.906 41.1576 317.653 40.5356 317.653 39.7976C317.653 39.0596 317.906 38.4482 318.412 37.9632C318.939 37.4572 319.593 37.2042 320.373 37.2042C321.153 37.2042 321.796 37.4572 322.302 37.9632C322.83 38.4482 323.093 39.0596 323.093 39.7976C323.093 40.5356 322.83 41.1576 322.302 41.6636C321.796 42.1486 321.153 42.391 320.373 42.391ZM322.555 44.4784V62H318.128V44.4784H322.555ZM334.711 62.2846C333.024 62.2846 331.506 61.9157 330.156 61.1777C328.807 60.4186 327.742 59.3538 326.962 57.9833C326.203 56.6128 325.823 55.0314 325.823 53.2392C325.823 51.447 326.213 49.8656 326.993 48.4951C327.795 47.1246 328.881 46.0704 330.251 45.3324C331.622 44.5733 333.15 44.1938 334.837 44.1938C336.524 44.1938 338.052 44.5733 339.423 45.3324C340.794 46.0704 341.869 47.1246 342.649 48.4951C343.45 49.8656 343.851 51.447 343.851 53.2392C343.851 55.0314 343.44 56.6128 342.617 57.9833C341.816 59.3538 340.72 60.4186 339.328 61.1777C337.958 61.9157 336.418 62.2846 334.711 62.2846ZM334.711 58.4261C335.512 58.4261 336.26 58.2363 336.956 57.8568C337.673 57.4562 338.242 56.8658 338.664 56.0857C339.086 55.3055 339.297 54.3567 339.297 53.2392C339.297 51.5735 338.854 50.2979 337.968 49.4123C337.104 48.5057 336.039 48.0523 334.774 48.0523C333.509 48.0523 332.444 48.5057 331.579 49.4123C330.736 50.2979 330.314 51.5735 330.314 53.2392C330.314 54.9049 330.725 56.1911 331.548 57.0978C332.391 57.9833 333.445 58.4261 334.711 58.4261ZM356.808 44.2254C358.896 44.2254 360.583 44.8896 361.869 46.218C363.155 47.5252 363.798 49.3596 363.798 51.7211V62H359.37V52.322C359.37 50.9304 359.022 49.8656 358.327 49.1277C357.631 48.3686 356.682 47.9891 355.48 47.9891C354.257 47.9891 353.287 48.3686 352.57 49.1277C351.875 49.8656 351.527 50.9304 351.527 52.322V62H347.099V44.4784H351.527V46.6607C352.117 45.9017 352.866 45.3113 353.772 44.8896C354.7 44.4468 355.712 44.2254 356.808 44.2254ZM374.714 62.2846C373.28 62.2846 371.994 62.0316 370.855 61.5256C369.717 60.9985 368.81 60.2921 368.135 59.4066C367.482 58.521 367.123 57.5405 367.06 56.4652H371.519C371.604 57.1399 371.93 57.6987 372.5 58.1415C373.09 58.5842 373.818 58.8056 374.682 58.8056C375.525 58.8056 376.179 58.637 376.643 58.2996C377.128 57.9622 377.37 57.53 377.37 57.0029C377.37 56.4336 377.075 56.0119 376.485 55.7378C375.916 55.4426 374.998 55.1263 373.733 54.789C372.426 54.4727 371.351 54.1459 370.507 53.8085C369.685 53.4712 368.968 52.9546 368.357 52.2588C367.766 51.563 367.471 50.6247 367.471 49.4439C367.471 48.474 367.745 47.5885 368.293 46.7872C368.863 45.986 369.664 45.3535 370.697 44.8896C371.751 44.4257 372.985 44.1938 374.397 44.1938C376.485 44.1938 378.151 44.7209 379.395 45.7752C380.639 46.8083 381.324 48.2105 381.45 49.9816H377.212C377.149 49.2858 376.854 48.7376 376.327 48.337C375.821 47.9153 375.135 47.7044 374.271 47.7044C373.47 47.7044 372.848 47.852 372.405 48.1472C371.983 48.4424 371.772 48.8536 371.772 49.3807C371.772 49.9711 372.068 50.4244 372.658 50.7407C373.248 51.0359 374.165 51.3416 375.41 51.6579C376.675 51.9741 377.718 52.3009 378.541 52.6383C379.363 52.9757 380.069 53.5028 380.66 54.2197C381.271 54.9155 381.587 55.8432 381.608 57.0029C381.608 58.015 381.324 58.9216 380.755 59.7228C380.206 60.5241 379.405 61.1566 378.351 61.6205C377.318 62.0633 376.105 62.2846 374.714 62.2846Z" fill="white"/>
</svg>
